<svg id="Group_9011" data-name="Group 9011" xmlns="http://www.w3.org/2000/svg" viewBox="0 0 143.1 145.95"><defs><style>.cls-1{fill:#fff;}</style></defs><g id="Group_9005" data-name="Group 9005"><g id="Group_9004" data-name="Group 9004"><path id="Path_33326" data-name="Path 33326" class="cls-1" d="M68,103.81l-3.67-1.06a14.18,14.18,0,0,1-6-3.28C56.77,98,55,93.8,55,93.8s9.11,2.09,11,3.2a14.27,14.27,0,0,0,7.38,1.66c3.57,0,6.28-.59,8.14-1.79s2.79-7,2.79-7a5,5,0,0,0-1.42-3.66c-.94-.94-7.19-3.33-9.6-3.88,0,0,0,0-.13-.06l-.17-.07a3.07,3.07,0,0,1-.52-.14,1.67,1.67,0,0,0-.48-.11c-3.4-.79-11.91-4.2-13.34-5.77a8.81,8.81,0,0,1-2.16-6.22s-3-8.87,8.12-12.16a30.52,30.52,0,0,1,9.86-1.39,27.7,27.7,0,0,1,7.79,1,13,13,0,0,1,5.36,3c1.39,1.35,3.18,5.22,3.18,5.22S82,63.89,80.42,62.93a11.41,11.41,0,0,0-6-1.44q-5.18,0-7.88,1.74c-1.8,1.17-2.7,6.5-2.7,6.5a4.67,4.67,0,0,0,1.55,3.66,10.92,10.92,0,0,0,3.83,2.19,64.36,64.36,0,0,0,6.33,1.76l.5.07a1.6,1.6,0,0,1,.42.1l.39.08a1.9,1.9,0,0,1,.39.11A50.27,50.27,0,0,1,84.67,80a12.92,12.92,0,0,1,5,3.6,9.23,9.23,0,0,1,2,6.2V91.6a10.81,10.81,0,0,1-2.07,6.73,12.39,12.39,0,0,1-6.22,4.11,32.17,32.17,0,0,1-10.08,1.37ZM70.23,51.2,76.34,53,77.46,109l-6-1.73Z" transform="translate(0)"/></g></g><path id="Path_33327" data-name="Path 33327" class="cls-1" d="M75.27,28.59l0,11.78L72,40.22S70.52,32,72,28.59Z" transform="translate(0)"/><path id="Path_33328" data-name="Path 33328" class="cls-1" d="M73.3,0l0,22.12-1.62-.29S70.93,6.46,71.66,0Z" transform="translate(0)"/><path id="Path_33329" data-name="Path 33329" class="cls-1" d="M78,9l0,13.08L76.31,22s-.73-9.09,0-12.91Z" transform="translate(0)"/><path id="Path_33330" data-name="Path 33330" class="cls-1" d="M92.48,28.59l0,22.61-3.24-.29s-1.46-15.71,0-22.32Z" transform="translate(0)"/><path id="Path_33331" data-name="Path 33331" class="cls-1" d="M55.78,28.59,55.73,51.2l-3.24-.29S51,35.2,52.49,28.59Z" transform="translate(0)"/><path id="Path_33332" data-name="Path 33332" class="cls-1" d="M53,135.77l.05-8.52,3.24.11s1.47,5.92,0,8.41Z" transform="translate(0)"/><path id="Path_33333" data-name="Path 33333" class="cls-1" d="M53,122.67,53,107.21l3.24.2s1.47,10.74,0,15.26Z" transform="translate(0)"/><path id="Path_33334" data-name="Path 33334" class="cls-1" d="M92.48,113.17l0,22.6-3.24-.29s-1.46-15.71,0-22.31Z" transform="translate(0)"/><path id="Path_33335" data-name="Path 33335" class="cls-1" d="M75.82,118l0,17.79-3.25-.22s-1.46-12.37,0-17.57Z" transform="translate(0)"/><g id="Group_9006" data-name="Group 9006"><path id="Path_33336" data-name="Path 33336" class="cls-1" d="M93.81,22.64c-.31-.11-.63-.18-.94-.27a20,20,0,0,0-6.66-.65c-2.47-.38-4.93-1-7.44-.15a24,24,0,0,0-3.48-.47,125.52,125.52,0,0,0-16.45-.57,50.87,50.87,0,0,0-11.44-.12c-2.24.13-2.75.75-2.31,2.28q-.56.28-.15.69c-1.55,3.66-1.16,7.42-1,11.17h0c-.05,3.2-.25,6.41-.13,9.61a378.18,378.18,0,0,1-2.65,59.33c-.16,5.43-.26,40.7-.26,40.7l60.34,1.5s-.12-3.33.09-9.5c1-29.65.26-59.34,2.82-89,.67-7.82,1.61-15.62,2.42-23.43C102.7,20.77,98.09,22.83,93.81,22.64ZM91.65,143.29h-.1l.1-.14ZM99,141H47.89s-.64-102.44,0-115.87c.32,0,51.11,0,51.11,0Z" transform="translate(0)"/></g><g id="Group_9007" data-name="Group 9007"><path id="Path_33337" data-name="Path 33337" class="cls-1" d="M44.47,144.05l.81-66.9A23.53,23.53,0,0,0,39,78.74c-.14-.84-1.91.08-2.51-.12-8.9-3-18.13-1.92-27.24-2.26C7,76.27,6.43,78,6.36,80.14a180.18,180.18,0,0,0,.47,20.52c.91,11.2-.59,22.4,0,33.59.18,3.27,1.2,7-4.24,6.38a1.17,1.17,0,0,0-1.41.87l0,.14c0,1.13.91,1.1,1.63,1.19.9.12,2,1.19,2.89,1.22ZM26,140.18c-4.8.3-9.62.18-14.42.35-1.8.06-2.52-.5-2.56-2.43-.16-8-.41-16-.25-24.1.2-10.65-.48-21.31-.89-32-.09-2.39.44-4,3.09-3.68,8.34,1.11,16.86.12,25.11,2.23l.43.43a5.19,5.19,0,0,0,1,.78,2.84,2.84,0,0,0,1,.39c3.14,2.74,3,6.39,2.8,10.11a345.86,345.86,0,0,0-.28,35v.23l-.15,11.2v.47C36,140.31,31,139.87,26,140.18Z" transform="translate(0)"/><path id="Path_33338" data-name="Path 33338" class="cls-1" d="M15.15,88.74c4.9.46,9.71-.41,14.6-.35s5.58-.6,4.19-3.14c.12-1.12-1.18-1-2.37-.88H25.33c-3.31.1-6.63.13-9.92.31-1.51.09-2.4.59-1,1.46C14.88,87,14.07,88,15.15,88.74Z" transform="translate(0)"/><path id="Path_33339" data-name="Path 33339" class="cls-1" d="M15.15,99.27c4.9.46,9.71-.41,14.6-.35s5.58-.6,4.19-3.15c.12-1.12-1.18-1-2.37-.88H25.33c-3.31.1-6.63.13-9.92.32-1.51.08-2.4.59-1,1.46C14.88,97.52,14.07,98.48,15.15,99.27Z" transform="translate(0)"/><path id="Path_33340" data-name="Path 33340" class="cls-1" d="M15.15,109.79c4.9.46,9.71-.41,14.6-.35s5.58-.6,4.19-3.15c.12-1.12-1.18-1-2.37-.88H25.32c-3.31.1-6.62.13-9.92.31-1.51.09-2.4.59-1,1.46C14.88,108,14.07,109,15.15,109.79Z" transform="translate(0)"/><path id="Path_33341" data-name="Path 33341" class="cls-1" d="M15.15,120.31c4.9.46,9.71-.41,14.6-.35s5.58-.6,4.19-3.15c.12-1.11-1.18-.94-2.37-.88l-6.24,0c-3.31.09-6.63.12-9.92.31-1.51.08-2.4.59-1,1.46C14.88,118.57,14.07,119.52,15.15,120.31Z" transform="translate(0)"/><path id="Path_33342" data-name="Path 33342" class="cls-1" d="M45.28,68.88c-4.06,0-35.54-2.31-42-1.86-2.95.2-4.69,1.41-1.87,3.5,0,.1.14-.67.16-.56,1,4.43,4.49,7.85,9,8C22.06,78.4,38,79.12,45.28,79,47.19,79,47.61,68.72,45.28,68.88Zm-2.13,8.69c-8.14.07-28-.91-36.2-1.75-1.8-1.42-.45-3.16-1.17-4.69-2.4-1.58-.92-2.5,1.6-2.65,5.48-.33,32.31,1.42,35.77,1.41C45.13,69.77,44.78,77.55,43.15,77.57Z" transform="translate(0)"/></g><g id="Group_9008" data-name="Group 9008"><path id="Path_33343" data-name="Path 33343" class="cls-1" d="M138.59,146c.91,0,2-1.08,2.88-1.2.72-.1,1.68-.05,1.63-1.17,0-.85-.86-1.06-1.43-1-5.44.57-4.42-3.07-4.24-6.3.61-11-.9-22.1,0-33.14a177.52,177.52,0,0,0,.47-20.24c-.07-2.15-.62-3.82-2.89-3.73-9.1.34-23.68-.09-32.58,2.82-.59.2-2.36-.71-2.5.12-1.41-.53.83-2.15-1-2.16l.81,66Zm-35.24-4.8v-.46c0-3.68-.09-7.36-.14-11v-.23a339.7,339.7,0,0,0-.28-34.52c-.22-3.67-5.69-6.67-2.55-9.37a3.24,3.24,0,0,0,1-.39,5.13,5.13,0,0,0,1-.77l.43-.42c8.25-2.08,22.11-1.71,30.45-2.8,2.66-.35,3.18,1.27,3.09,3.62-.41,10.51-1.09,21-.88,31.54.15,7.94-.1,15.85-.26,23.77,0,1.91-.76,2.46-2.55,2.4-4.81-.16-9.63,0-14.43-.33C113.27,141.84,108.26,142.27,103.35,141.15Z" transform="translate(0)"/><path id="Path_33344" data-name="Path 33344" class="cls-1" d="M129.83,89c1.44-.88.55-1.38-1-1.47-3.29-.18-6.61-.22-9.92-.31h-6.23c-1.19-.07-2.5-.24-2.38.88-1.39,2.55-.58,3.2,4.19,3.14s9.69.81,14.6.35C130.21,90.77,129.4,89.81,129.83,89Z" transform="translate(0)"/><path id="Path_33345" data-name="Path 33345" class="cls-1" d="M129.14,71.73c1.44-.87.55-1.37-1-1.46-3.29-.18-6.61-.22-9.92-.31l-6.23,0c-1.19-.06-2.5-.23-2.38.88-1.39,2.56-.58,3.21,4.19,3.15s9.69.81,14.6.35C129.52,73.53,128.71,72.58,129.14,71.73Z" transform="translate(0)"/><path id="Path_33346" data-name="Path 33346" class="cls-1" d="M129.83,99.49c1.44-.87.55-1.38-1-1.46-3.29-.19-6.61-.22-9.92-.32h-6.23c-1.19-.07-2.5-.24-2.38.88-1.39,2.55-.58,3.21,4.19,3.15s9.69.81,14.6.35C130.21,101.29,129.4,100.33,129.83,99.49Z" transform="translate(0)"/><path id="Path_33347" data-name="Path 33347" class="cls-1" d="M129.83,110c1.44-.87.55-1.38-1-1.46-3.29-.19-6.61-.22-9.92-.32h-6.23c-1.19-.07-2.5-.23-2.38.88-1.39,2.55-.58,3.21,4.19,3.15s9.69.81,14.6.35C130.21,111.81,129.4,110.85,129.83,110Z" transform="translate(0)"/><path id="Path_33348" data-name="Path 33348" class="cls-1" d="M129.83,120.53c1.44-.87.55-1.38-1-1.46-3.29-.18-6.61-.22-9.92-.31l-6.23,0c-1.19-.06-2.5-.23-2.38.88-1.39,2.56-.58,3.21,4.19,3.15s9.69.81,14.6.35C130.21,122.33,129.4,121.38,129.83,120.53Z" transform="translate(0)"/><path id="Path_33349" data-name="Path 33349" class="cls-1" d="M119.47,131.51c-1.63-.94-2.58-.36-2.74.63-.34,2.17-.41,4.35-.58,6.53l0,4.1c-.13.78-.44,1.64,1.64,1.56,4.78.91,6,.38,5.89-2.76s1.52-6.37.66-9.6C122.84,131.27,121.05,131.8,119.47,131.51Z" transform="translate(0)"/></g><g id="Group_9009" data-name="Group 9009"><path id="Path_33350" data-name="Path 33350" class="cls-1" d="M125.83,62.07c-1.65,0-3.63.06-4.83,0-.86,0-2.44-1.7-3.44-3.41a4.84,4.84,0,0,1-.53-2.15l-1.37-6.62a1.32,1.32,0,0,0-1.45-1l-11.38,1.48a1.08,1.08,0,0,1-.36-2.12h0l14.77-2.53a1.08,1.08,0,0,1,1.24.88s0,.07,0,.11l.61,8.71a2.82,2.82,0,0,0,.24,1.21c.27.48,1,.73,2.35.79,4.68.21,14,1.09,18.78-.12a1.08,1.08,0,0,1,.53,2.09C137.23,60.3,130.76,62.07,125.83,62.07Z" transform="translate(0)"/></g><g id="Group_9010" data-name="Group 9010"><path id="Path_33351" data-name="Path 33351" class="cls-1" d="M136.86,82.79a1.07,1.07,0,0,1-1-.81c-2.19-8.4-1.11-14.51-.06-23.13a1.08,1.08,0,1,1,2.14.26c-1,8.29-2.1,14.25,0,22.33a1.07,1.07,0,0,1-.77,1.31.84.84,0,0,1-.27,0Z" transform="translate(0)"/></g></svg>