<svg xmlns="http://www.w3.org/2000/svg" width="116.883" height="155.374" viewBox="0 0 116.883 155.374">
  <g id="Group_9003" data-name="Group 9003" transform="translate(0.498 0.543)">
    <g id="Group_8974" data-name="Group 8974" transform="translate(51.503 35.238)">
      <path id="Path_33307" data-name="Path 33307" d="M5931.118,775.247l-.063,0a.89.89,0,0,1-.827-.949c-1.958-20.827-1.922-15.785-2.407-19.787-1.655-6.49-.3-7.18-.385-13.763-.029-2.271-.057-4.539-.149-6.793-.452-11.213-.723-22.554-.8-33.708a54.882,54.882,0,0,0-.513-8.025,18.123,18.123,0,0,1,.089-6.28.89.89,0,1,1,1.763.248,16.592,16.592,0,0,0-.089,5.791,56.238,56.238,0,0,1,.53,8.254c.082,11.135.351,22.456.8,33.65.091,2.27.121,4.553.148,6.841.085,6.478-1.272,7.061.328,13.346.262,1.024.986,2.21,2.461,20.348A.89.89,0,0,1,5931.118,775.247Z" transform="translate(-5925.74 -685.175)" fill="#fff" stroke="#fff" stroke-width="1"/>
    </g>
    <g id="Group_8975" data-name="Group 8975" transform="translate(53.433 81.528)">
      <path id="Path_33308" data-name="Path 33308" d="M.7,17.813a.7.7,0,0,1-.36-1.294C3.888,14.371,7.416,10.7,10.4,7.4c1.384-1.534,1.812-3.57,1.389-6.6A.7.7,0,0,1,13.166.6c.3,2.157.448,5.307-1.734,7.728C8.384,11.712,4.765,15.471,1.06,17.712A.715.715,0,0,1,.7,17.813Z" transform="translate(6.092 0) rotate(20)" fill="#fff" stroke="#fff" stroke-width="1"/>
    </g>
    <g id="Group_8976" data-name="Group 8976" transform="translate(39.885 86.314)">
      <path id="Path_33309" data-name="Path 33309" d="M5932.52,735.84a.7.7,0,0,1-.529-.244,31.88,31.88,0,0,0-5.147-4.653c-3.453-2.663-6.712-5.18-8.991-12.391a.7.7,0,0,1,1.33-.421c2.146,6.794,5.1,9.072,8.513,11.709a33.009,33.009,0,0,1,5.356,4.85.7.7,0,0,1-.078.983A.691.691,0,0,1,5932.52,735.84Z" transform="translate(-5917.819 -717.645)" fill="#fff" stroke="#fff" stroke-width="1"/>
    </g>
    <g id="Group_8981" data-name="Group 8981" transform="translate(52.443 35.188)">
      <g id="Group_8977" data-name="Group 8977">
        <path id="Path_33310" data-name="Path 33310" d="M5937.917,733.415c-4.559,0-8.452-1.141-10.165-4.447-3.867-7.473.8-20.585,2.981-25.874h0a23.01,23.01,0,0,1,4.466-7.347c4.466-4.609,11.494-5.814,16.626-6.695l22.781-3.906-.475,1.412a90.115,90.115,0,0,0-3.108,14.3,110.813,110.813,0,0,1-2.406,12.064c-2.578,9.271-9.365,16.2-18.157,18.545A51.054,51.054,0,0,1,5937.917,733.415ZM5972,687.4l-19.871,3.405c-6.34,1.088-11.894,2.3-15.647,6.18a20.714,20.714,0,0,0-4.1,6.788h0c-1.63,3.946-6.672,17.374-3.044,24.375,2.812,5.431,14.153,3.329,20.666,1.595,8.176-2.179,14.493-8.646,16.9-17.3a110.536,110.536,0,0,0,2.364-11.872A101.2,101.2,0,0,1,5972,687.4Z" transform="translate(-5926.269 -685.147)" fill="#fff" stroke="#fff" stroke-width="1"/>
      </g>
      <g id="Group_8978" data-name="Group 8978" transform="translate(1.797 13.325)">
        <path id="Path_33311" data-name="Path 33311" d="M5928.167,724.1a.889.889,0,0,1-.648-1.5,55.5,55.5,0,0,1,7.6-6.383c1.626-1.209,3.306-2.457,4.851-3.784,1.906-1.641,3.7-3.489,5.443-5.278l13.857-14.255a.89.89,0,1,1,1.275,1.241L5946.7,708.384c-1.778,1.83-3.6,3.708-5.571,5.4-1.594,1.371-3.3,2.64-4.953,3.865a54.464,54.464,0,0,0-7.36,6.174A.887.887,0,0,1,5928.167,724.1Z" transform="translate(-5927.278 -692.633)" fill="#fff" stroke="#fff" stroke-width="1"/>
      </g>
      <g id="Group_8979" data-name="Group 8979" transform="translate(20.416 8.699)">
        <path id="Path_33312" data-name="Path 33312" d="M5939.08,709.469a.889.889,0,0,1-.885-.814,159.763,159.763,0,0,1-.352-17.767.838.838,0,0,1,.928-.849.888.888,0,0,1,.85.929,157.478,157.478,0,0,0,.348,17.536.889.889,0,0,1-.812.961A.535.535,0,0,1,5939.08,709.469Z" transform="translate(-5937.737 -690.034)" fill="#fff" stroke="#fff" stroke-width="1"/>
      </g>
      <g id="Group_8980" data-name="Group 8980" transform="translate(9.636 35.637)">
        <path id="Path_33313" data-name="Path 33313" d="M5932.572,707.779a.89.89,0,0,1-.1-1.775c1.985-.223,5.976-.2,8.882-.193.983,0,1.859.007,2.515,0q.9,0,1.789.011c1.043.014,2.127.028,3.17-.039a19.5,19.5,0,0,0,3.664-.589.89.89,0,0,1,.448,1.723,21.276,21.276,0,0,1-4,.643c-1.113.073-2.229.059-3.312.041-.581-.007-1.167-.014-1.745-.009-.662.005-1.543,0-2.541,0-2.868-.011-6.792-.028-8.676.183A.879.879,0,0,1,5932.572,707.779Z" transform="translate(-5931.682 -705.167)" fill="#fff" stroke="#fff" stroke-width="1"/>
      </g>
    </g>
    <g id="Group_8986" data-name="Group 8986" transform="translate(12.511 44.622)">
      <g id="Group_8982" data-name="Group 8982">
        <path id="Path_33314" data-name="Path 33314" d="M5929.2,723.232c-.711,0-1.357-.027-1.915-.075-6.046-.529-11.78-5.319-15.346-12.812a81.985,81.985,0,0,1-3.313-8.529,66.165,66.165,0,0,0-4.079-10l-.709-1.308,17.518-.059c3.9-.011,9.222-.03,13.133,2.809a17.291,17.291,0,0,1,4.254,4.856h0c2.287,3.612,7.4,12.664,5.5,18.7C5942.672,721.82,5934.3,723.232,5929.2,723.232Zm-22.411-30.956a78.332,78.332,0,0,1,3.521,8.959,81.458,81.458,0,0,0,3.234,8.347c3.294,6.916,8.487,11.327,13.9,11.8,4.7.411,13.8-.936,15.109-5.1,1.722-5.477-3.629-14.563-5.312-17.217a15.7,15.7,0,0,0-3.8-4.368c-3.18-2.309-7.372-2.48-12.078-2.469Z" transform="translate(-5903.837 -690.446)" fill="#fff" stroke="#fff" stroke-width="1"/>
      </g>
      <g id="Group_8983" data-name="Group 8983" transform="translate(11.47 8.002)">
        <path id="Path_33315" data-name="Path 33315" d="M5938.136,714.346a.882.882,0,0,1-.536-.18,39.382,39.382,0,0,0-6.127-3.544c-1.366-.685-2.778-1.4-4.123-2.2-1.661-.99-3.238-2.131-4.766-3.234l-11.936-8.639a.89.89,0,1,1,1.044-1.442l11.924,8.63c1.507,1.088,3.052,2.206,4.645,3.154,1.289.771,2.674,1.465,4.012,2.138a41.347,41.347,0,0,1,6.4,3.713.89.89,0,0,1-.534,1.6Z" transform="translate(-5910.28 -694.941)" fill="#fff" stroke="#fff" stroke-width="1"/>
      </g>
      <g id="Group_8984" data-name="Group 8984" transform="translate(20.382 2.967)">
        <path id="Path_33316" data-name="Path 33316" d="M5918.175,706.824a.89.89,0,0,1-.885-.812,117.279,117.279,0,0,0-1.982-12.817.89.89,0,1,1,1.737-.386,118.816,118.816,0,0,1,2.018,13.046.89.89,0,0,1-.809.965C5918.228,706.822,5918.2,706.824,5918.175,706.824Z" transform="translate(-5915.286 -692.113)" fill="#fff" stroke="#fff" stroke-width="1"/>
      </g>
      <g id="Group_8985" data-name="Group 8985" transform="translate(17.061 21.848)">
        <path id="Path_33317" data-name="Path 33317" d="M5915.54,706.514c-.436,0-.87-.016-1.3-.052a.89.89,0,1,1,.143-1.775,14.184,14.184,0,0,0,2.707-.037c.776-.084,1.544-.23,2.309-.376.433-.082.869-.164,1.3-.235.475-.08,1.109-.194,1.824-.322,2.252-.4,5.051-.9,6.543-1a.89.89,0,1,1,.111,1.777c-1.39.087-4.251.6-6.34.974-.724.13-1.366.244-1.848.324-.423.071-.843.15-1.262.23-.813.153-1.627.306-2.449.4A16.228,16.228,0,0,1,5915.54,706.514Z" transform="translate(-5913.42 -702.72)" fill="#fff" stroke="#fff" stroke-width="1"/>
      </g>
    </g>
    <g id="Group_8990" data-name="Group 8990" transform="translate(35.87 0)">
      <g id="Group_8987" data-name="Group 8987">
        <path id="Path_33318" data-name="Path 33318" d="M5933.931,702.4a15.423,15.423,0,0,1-7.848-2.213,17.737,17.737,0,0,1-8.335-11.722c-2.631-8.863,1.881-14.211,5.176-18.118l.221-.263c4-5.3,12.532-5.517,15.253-3.589.989.509,13.152,10.551,12.681,21.055-.268,5.988-4.566,10.754-12.771,14.166A14.413,14.413,0,0,1,5933.931,702.4ZM5933.6,667.2c-2.971,0-6.795.977-9.068,3.987l-.252.3c-3.208,3.8-7.2,8.536-4.817,16.5.007.025.014.052.02.078a15.944,15.944,0,0,0,7.5,10.583,13.132,13.132,0,0,0,10.708,1.392c7.443-3.1,11.372-7.338,11.606-12.576.425-9.479-10.867-18.955-11.83-19.46A7.564,7.564,0,0,0,5933.6,667.2Z" transform="translate(-5916.958 -665.38)" fill="#fff" stroke="#fff" stroke-width="1"/>
      </g>
      <g id="Group_8989" data-name="Group 8989" transform="translate(10.594 7.677)">
        <g id="Group_8988" data-name="Group 8988">
          <path id="Path_33319" data-name="Path 33319" d="M5926.931,691.762l-1.132-.443a4.226,4.226,0,0,1-1.85-1.374,11.3,11.3,0,0,1-1.039-2.38,19.42,19.42,0,0,1,3.371,1.34,3.475,3.475,0,0,0,2.273.7,3.7,3.7,0,0,0,2.506-.751c.573-.5.858-2.95.858-2.95a2.527,2.527,0,0,0-.437-1.535,10.494,10.494,0,0,0-2.955-1.63q0-.013-.041-.027a.142.142,0,0,1-.053-.027.862.862,0,0,1-.161-.061.558.558,0,0,0-.147-.046,12.991,12.991,0,0,1-4.11-2.419,4.612,4.612,0,0,1-.664-2.608s-.933-3.724,2.5-5.1a7.1,7.1,0,0,1,3.037-.584,6.36,6.36,0,0,1,2.4.409,3.833,3.833,0,0,1,1.649,1.26,11.5,11.5,0,0,1,.979,2.191,16.657,16.657,0,0,1-3.166-1.113,2.777,2.777,0,0,0-1.863-.6,3.57,3.57,0,0,0-2.427.732c-.555.486-.831,2.727-.831,2.727a2.355,2.355,0,0,0,.476,1.536,3.373,3.373,0,0,0,1.181.919,16.868,16.868,0,0,0,1.95.737l.155.027a.478.478,0,0,1,.127.041c.035.009.076.02.12.034a.692.692,0,0,1,.121.046,12.576,12.576,0,0,1,2.3.958,4.274,4.274,0,0,1,1.537,1.51,4.867,4.867,0,0,1,.615,2.6v.763a5.734,5.734,0,0,1-.637,2.823,3.992,3.992,0,0,1-1.917,1.723,7.52,7.52,0,0,1-3.1.577Zm.686-22.07,1.881.772.345,23.469L5928,693.2Z" transform="translate(-5922.91 -669.692)" fill="#fff"/>
        </g>
      </g>
    </g>
    <g id="Group_8996" data-name="Group 8996" transform="translate(0 59.327)">
      <g id="Group_8992" data-name="Group 8992" transform="translate(11.435 57.882)">
        <g id="Group_8991" data-name="Group 8991">
          <path id="Path_33320" data-name="Path 33320" d="M5904.1,731.223a.845.845,0,0,0-.646,1.417,100.281,100.281,0,0,0,17.415,15.176,14.542,14.542,0,0,1,5.945,11.022c.21,2.866.892,5.7,1.489,9.321,6.081-2.327,15.71-6.631,19.638-10.948a2.466,2.466,0,0,0,.206-1.85c-1.172-5.851-1.885-11.9-3.567-17.54C5943,732.508,5912.213,731.419,5904.1,731.223Zm39.574,8.879c.64,4.125,1.6,9.369,2.2,13.5.214,1.453.153,3.564-.719,4.44-2.658,2.665-11.39,4.94-14.806,7.717a21.5,21.5,0,0,1-.98-3.957c-.108-6.775-3.365-11.533-8.458-15.913-2.031-1.746-4.446-4.025-6.946-6.59-3.175-3.258-5.069-3.2-7.9-6.877C5905.528,731.713,5942.625,733.324,5943.677,740.1Z" transform="translate(-5903.232 -731.223)" fill="#fff" stroke="#fff" stroke-width="1"/>
        </g>
      </g>
      <g id="Group_8994" data-name="Group 8994">
        <g id="Group_8993" data-name="Group 8993">
          <path id="Path_33321" data-name="Path 33321" d="M5896.813,730.459c-.144,3,2.427,6.141,3.787,9.207.655,1.474,1.342,2.95,2.029,4.422a6.064,6.064,0,0,0,.251.671c.534,1.255,7.451,10.9,8.429,12.843-.153-.308-.04-.71,1.44-.514-5.579-6.8-10.239-18.378-10.979-19.613-5.185-8.653-.817-16.851-.577-26.095.009-.349,4.18-12.044,7.888-7.078,2.2,2.948,5.114,7.21,4.257,10.788-.575,2.4-1.287,5.194-1.657,7.124a26.659,26.659,0,0,0,2.76,18.62c9.879,15,4.918,4.3,2.688-.061-1.8-3.525-4.5-6.732-1.51-11.628,1.784,1.782,3.445,3.2,4.822,4.86,4.412,5.31,8.169,11.309,13.214,15.905,3.5,3.19,5.084,5.04,6.682,9.007,1.44.926,1.893.376,2.178,1.221-1.828-6.1-3.352-8.658-9.262-13.006-3.027-2.227-16.713-20.938-20.373-20.979.747-3.8,1.5-7.6,2.241-11.411l.009-.043a11.9,11.9,0,0,0-1.062-7.811c-5.154-9.876-9.856-12.368-14.253,1.312C5898.565,716.382,5897.155,723.4,5896.813,730.459Z" transform="translate(-5896.808 -698.707)" fill="#fff" stroke="#fff" stroke-width="1"/>
        </g>
      </g>
      <g id="Group_8995" data-name="Group 8995" transform="translate(41.596 65.202)">
        <path id="Path_33322" data-name="Path 33322" d="M5925.493,740.8a3.5,3.5,0,0,0,.6-2.834,3.331,3.331,0,0,0-3.267-2.629,2.952,2.952,0,0,0-.785.191c-.035.012-.071.027-.106.043l-.046.021a2.3,2.3,0,0,0-.61.42,3.639,3.639,0,0,0-1.088,2.829,4.684,4.684,0,0,0,.909,2.054,2.943,2.943,0,0,0,2.273.951,1.367,1.367,0,0,0,.7-.086l.615-.231.01,0C5924.8,741.469,5925.426,741.078,5925.493,740.8Zm-2.78-.048c-3.423-1.422-.248-4.2.009-4.338a1.6,1.6,0,0,1,1.813.442,2.232,2.232,0,0,1,.671,2.268A2.03,2.03,0,0,1,5922.713,740.752Z" transform="translate(-5920.175 -735.335)" fill="#fff" stroke="#fff" stroke-width="1"/>
      </g>
    </g>
    <g id="Group_9002" data-name="Group 9002" transform="translate(59.455 59.327)">
      <g id="Group_8998" data-name="Group 8998" transform="translate(0 57.882)">
        <g id="Group_8997" data-name="Group 8997">
          <path id="Path_33323" data-name="Path 33323" d="M5933.853,737.822c-1.682,5.638-2.395,11.688-3.566,17.54a2.461,2.461,0,0,0,.206,1.85c3.928,4.317,13.556,8.621,19.636,10.948.6-3.624,1.281-6.455,1.491-9.321a14.536,14.536,0,0,1,5.945-11.022,100.319,100.319,0,0,0,17.415-15.176.845.845,0,0,0-.646-1.417C5966.223,731.419,5935.438,732.508,5933.853,737.822Zm38.514-5.4c-2.831,3.68-4.726,3.619-7.9,6.877-2.5,2.565-4.915,4.844-6.946,6.59-5.093,4.379-8.349,9.137-8.457,15.913a21.658,21.658,0,0,1-.98,3.957c-3.417-2.777-12.148-5.052-14.806-7.717-.873-.876-.933-2.987-.72-4.44.606-4.126,1.563-9.371,2.2-13.5C5935.812,733.324,5972.908,731.713,5972.366,732.417Z" transform="translate(-5930.208 -731.223)" fill="#fff" stroke="#fff" stroke-width="1"/>
        </g>
      </g>
      <g id="Group_9000" data-name="Group 9000" transform="translate(10.725)">
        <g id="Group_8999" data-name="Group 8999">
          <path id="Path_33324" data-name="Path 33324" d="M5978.933,708.2c-4.4-13.68-9.1-11.188-14.254-1.312a11.884,11.884,0,0,0-1.058,7.811l.007.043c.738,3.806,1.493,7.608,2.241,11.411-3.66.041-17.346,18.752-20.374,20.979-5.91,4.347-7.435,6.909-9.263,13.006.287-.846.737-.3,2.179-1.221,1.6-3.968,3.183-5.818,6.682-9.007,5.045-4.6,8.8-10.6,13.214-15.905,1.378-1.657,3.038-3.078,4.822-4.86,2.991,4.9.293,8.1-1.51,11.628-2.229,4.356-7.189,15.063,2.688.061a26.66,26.66,0,0,0,2.761-18.62c-.371-1.929-1.083-4.724-1.658-7.124-.857-3.578,2.055-7.84,4.257-10.788,3.708-4.966,7.878,6.729,7.888,7.078.24,9.244,4.606,17.442-.576,26.095-.741,1.235-5.4,12.815-10.979,19.613,1.48-.2,1.594.207,1.439.514.978-1.946,7.895-11.589,8.429-12.843a6.273,6.273,0,0,0,.251-.671c.688-1.472,1.375-2.948,2.029-4.422,1.36-3.065,3.931-6.205,3.786-9.207C5981.592,723.4,5980.183,716.382,5978.933,708.2Z" transform="translate(-5936.232 -698.707)" fill="#fff" stroke="#fff" stroke-width="1"/>
        </g>
      </g>
      <g id="Group_9001" data-name="Group 9001" transform="translate(8.846 65.202)">
        <path id="Path_33325" data-name="Path 33325" d="M5936.642,741.524l.008,0,.616.231a1.374,1.374,0,0,0,.7.086,2.941,2.941,0,0,0,2.271-.951,4.706,4.706,0,0,0,.909-2.054,3.646,3.646,0,0,0-1.088-2.829,2.3,2.3,0,0,0-.61-.42l-.046-.021c-.035-.016-.071-.03-.106-.043a2.966,2.966,0,0,0-.787-.191,3.332,3.332,0,0,0-3.266,2.629,3.5,3.5,0,0,0,.6,2.834C5935.918,741.078,5936.547,741.469,5936.642,741.524Zm-.5-2.4a2.231,2.231,0,0,1,.672-2.268,1.6,1.6,0,0,1,1.812-.442c.257.135,3.432,2.916.01,4.338A2.031,2.031,0,0,1,5936.137,739.123Z" transform="translate(-5935.177 -735.335)" fill="#fff" stroke="#fff" stroke-width="1"/>
      </g>
    </g>
  </g>
</svg>
